<?xml version="1.0" standalone="no"?>
<!DOCTYPE svg PUBLIC "-//W3C//DTD SVG 20010904//EN"
 "http://www.w3.org/TR/2001/REC-SVG-20010904/DTD/svg10.dtd">
<svg version="1.0" xmlns="http://www.w3.org/2000/svg"
 width="322.000000pt" height="322.000000pt" viewBox="0 0 322.000000 322.000000"
 preserveAspectRatio="xMidYMid meet">
<metadata>
Created by potrace 1.14, written by Peter Selinger 2001-2017
</metadata>
<g transform="translate(0.000000,322.000000) scale(0.100000,-0.100000)"
fill="#000000" stroke="none">
<path d="M440 3211 c0 -5 -24 -11 -54 -13 -32 -3 -61 -11 -71 -21 -9 -10 -21
-14 -27 -11 -5 3 -18 -3 -29 -15 -11 -12 -26 -21 -34 -21 -8 0 -15 -5 -15 -10
0 -6 -8 -14 -17 -17 -23 -9 -73 -58 -73 -73 0 -6 -6 -13 -14 -16 -8 -3 -18
-19 -21 -35 -4 -16 -11 -29 -16 -29 -5 0 -9 -6 -9 -14 0 -8 -7 -22 -16 -30 -8
-9 -18 -41 -21 -71 -3 -30 -10 -55 -14 -55 -5 0 -9 -510 -9 -1140 0 -657 4
-1140 9 -1140 5 0 11 -32 13 -72 2 -44 9 -73 16 -76 7 -2 12 -15 12 -28 0 -14
6 -27 14 -30 8 -3 18 -19 21 -35 4 -16 11 -29 16 -29 5 0 9 -6 9 -14 0 -17
116 -126 133 -126 7 0 20 -9 30 -20 9 -11 24 -20 32 -20 8 0 15 -4 15 -9 0 -5
27 -12 60 -16 33 -4 60 -11 60 -16 0 -5 482 -9 1170 -9 672 0 1170 4 1170 9 0
5 25 12 56 16 39 5 65 14 83 31 14 13 34 24 44 24 10 0 20 7 23 15 4 8 11 15
18 15 17 0 76 59 76 76 0 7 7 14 15 14 8 0 15 6 15 14 0 8 7 16 15 20 8 3 15
12 15 21 0 8 4 15 10 15 5 0 12 11 16 25 3 14 10 25 14 25 5 0 12 29 15 65 4
36 11 68 16 71 12 7 12 2331 0 2338 -4 3 -11 26 -14 52 -2 26 -9 49 -15 53 -6
3 -14 19 -17 34 -4 15 -10 27 -14 27 -3 0 -17 18 -31 40 -13 22 -28 40 -32 40
-4 0 -8 7 -8 15 0 8 -4 15 -9 15 -5 0 -26 16 -45 35 -20 19 -43 35 -51 35 -8
0 -15 5 -15 11 0 6 -7 9 -15 5 -8 -3 -15 -1 -15 4 0 6 -6 10 -14 10 -8 0 -16
5 -18 11 -2 6 -36 14 -76 17 -40 2 -72 9 -72 13 0 5 -511 9 -1155 9 -655 0
-1155 -4 -1155 -9z m1611 -454 c33 -17 81 -49 100 -67 33 -30 66 -55 102 -80
20 -14 37 -28 37 -32 0 -5 11 -8 25 -8 14 0 25 4 25 9 0 6 20 13 45 17 25 3
45 10 45 14 0 5 19 11 43 15 23 4 45 12 49 18 4 6 33 11 66 12 44 0 63 -5 77
-19 41 -41 56 -95 36 -134 -5 -9 -19 -51 -31 -92 -12 -41 -26 -84 -30 -95 -19
-44 -21 -82 -6 -98 9 -9 16 -20 16 -25 0 -5 9 -17 20 -27 11 -10 20 -24 20
-32 0 -7 4 -13 9 -13 5 0 26 -27 47 -60 21 -33 42 -60 46 -60 4 0 8 -24 8 -54
0 -47 -4 -58 -31 -85 l-31 -31 -157 0 -158 0 -19 -26 c-10 -14 -25 -32 -31
-39 -7 -8 -13 -18 -13 -23 0 -8 -11 -23 -50 -69 -5 -7 -10 -17 -10 -23 0 -6
-18 -29 -40 -50 -46 -45 -91 -53 -136 -24 -25 17 -64 89 -64 119 0 8 -6 25
-12 36 -10 17 -10 23 0 26 6 3 12 11 12 19 0 19 54 18 74 -2 9 -8 16 -29 16
-45 0 -16 5 -29 10 -29 6 0 10 -6 10 -14 0 -36 22 -21 64 43 25 38 46 74 46
80 0 6 3 11 8 11 4 0 18 17 32 38 52 79 47 77 223 75 l158 -3 -7 23 c-4 12
-10 24 -13 27 -3 3 -17 22 -31 42 -14 21 -28 38 -32 38 -5 0 -8 6 -8 13 0 7
-9 20 -20 30 -11 9 -20 23 -20 31 0 8 -7 16 -15 20 -8 3 -15 12 -15 21 0 8 -4
15 -10 15 -12 0 -13 97 -1 104 4 3 11 24 15 46 3 23 10 49 15 58 14 29 41 119
41 137 0 14 -6 16 -35 11 -19 -4 -47 -13 -62 -21 -15 -8 -35 -15 -44 -15 -9 0
-30 -7 -45 -15 -16 -8 -37 -15 -46 -15 -9 0 -20 -4 -23 -10 -3 -5 -22 -10 -41
-10 -19 0 -34 5 -34 10 0 6 -7 10 -15 10 -8 0 -23 9 -32 20 -10 11 -22 20 -27
20 -5 0 -19 11 -32 25 -13 14 -27 25 -31 25 -4 0 -26 16 -48 35 -61 53 -63 55
-75 55 -6 0 -9 -4 -5 -9 3 -6 8 -74 11 -153 6 -129 5 -146 -13 -177 -10 -19
-27 -39 -38 -45 -10 -6 -29 -21 -41 -33 -11 -13 -26 -23 -31 -23 -5 0 -18 -9
-28 -20 -10 -11 -24 -20 -32 -20 -7 0 -13 -5 -13 -10 0 -6 -8 -14 -17 -17 -28
-11 -52 -35 -46 -48 2 -7 24 -16 49 -20 24 -3 44 -10 44 -16 0 -5 10 -9 23 -9
12 0 35 -7 51 -15 15 -8 36 -15 45 -15 9 0 36 -10 61 -23 34 -17 46 -29 48
-49 3 -27 0 -31 -110 -149 -32 -33 -58 -62 -58 -65 0 -2 -8 -12 -17 -22 -10
-10 -43 -47 -73 -82 -30 -35 -71 -81 -90 -101 -35 -37 -49 -53 -150 -170 -30
-35 -70 -78 -87 -96 -18 -19 -33 -36 -33 -38 0 -3 -8 -13 -17 -23 -10 -10 -45
-49 -78 -87 -33 -37 -79 -88 -102 -112 -24 -24 -43 -48 -43 -53 0 -4 -4 -10
-9 -12 -5 -2 -42 -41 -82 -88 -40 -47 -84 -97 -98 -111 -29 -30 -65 -71 -131
-149 -87 -104 -117 -130 -152 -130 -41 0 -51 7 -72 47 -13 27 -16 68 -16 248
0 171 -3 214 -12 205 -7 -5 -31 -26 -53 -45 -22 -19 -46 -35 -52 -35 -7 0 -13
-4 -13 -8 0 -4 -23 -25 -51 -46 -63 -47 -99 -45 -99 6 0 25 15 45 90 120 50
49 90 93 90 98 0 6 5 10 10 10 6 0 22 12 35 26 49 52 111 69 142 38 25 -24 40
-111 43 -235 1 -63 5 -134 8 -158 l7 -44 60 60 c33 33 75 78 94 99 56 66 202
223 279 301 39 41 72 76 72 78 0 3 15 19 33 38 17 18 77 82 132 142 55 60 128
138 163 173 34 35 62 65 62 67 0 2 15 20 33 38 127 133 207 225 207 238 0 5
-10 9 -22 9 -13 0 -36 7 -51 15 -15 8 -43 17 -63 21 -19 3 -37 10 -40 15 -3 5
-13 9 -23 9 -21 0 -71 40 -71 58 0 7 -4 12 -10 12 -16 0 -11 66 7 98 9 16 33
40 52 53 20 13 40 29 44 36 4 7 13 13 18 13 6 0 16 6 23 13 8 6 24 19 36 27
12 8 28 21 36 28 7 6 17 12 23 12 6 0 11 67 13 178 3 159 5 179 23 200 11 12
27 22 37 22 9 0 20 5 23 10 8 14 28 13 56 -3z"/>
</g>
</svg>
