<svg width="1920" height="1080" viewBox="0 0 1920 1080" fill="none" xmlns="http://www.w3.org/2000/svg">
<rect width="1920" height="1080" fill="url(#paint0_linear_406_38)"/>
<path fill-rule="evenodd" clip-rule="evenodd" d="M542.805 845.063H507.881L574.052 726.556V721.912H486.792V730.368H517.683L517.523 730.813H551.608L485.341 849.223V853.963H574.729V818.46H565.249C563.701 824.973 562.379 829.778 561.282 832.874C560.186 835.97 558.96 838.388 557.606 840.129C556.252 841.806 554.51 843.064 552.382 843.902C550.318 844.676 547.126 845.063 542.805 845.063ZM665.805 849.223V853.963H710.402V849.223C707.5 848.514 705.21 847.417 703.533 845.934C701.857 844.45 700.405 842.387 699.18 839.742C698.019 837.098 696.665 833.261 695.117 828.23L662.225 720.365H646.94L606.599 827.456C604.084 834.164 601.472 839.323 598.763 842.935C596.119 846.547 592.991 848.643 589.38 849.223V853.963H630.688V849.223C626.625 848.643 623.593 847.449 621.594 845.644C619.659 843.838 618.692 841 618.692 837.13C618.692 835.131 618.95 832.906 619.466 830.455C619.982 828.005 621.078 824.393 622.755 819.62L626.044 810.14H671.125L674.705 822.619C675.672 825.78 676.414 828.65 676.93 831.229C677.446 833.745 677.704 836.099 677.704 838.291C677.704 840.613 677.317 842.483 676.543 843.902C675.769 845.257 674.576 846.321 672.963 847.095C671.416 847.869 669.029 848.578 665.805 849.223ZM669.094 801.723H628.656L650.713 739.326L669.094 801.723ZM820.439 826.489C821.728 821.394 822.373 815.332 822.373 808.302V746.098C822.373 740.809 822.631 737.068 823.147 734.876C823.663 732.683 824.598 731.006 825.953 729.845C827.372 728.684 829.951 727.62 833.692 726.653V721.912H795.093V726.653C799.027 727.685 801.606 728.749 802.832 729.845C804.122 730.942 805.025 732.522 805.541 734.585C806.121 736.649 806.411 740.487 806.411 746.098V806.56C806.411 814.493 805.992 820.814 805.154 825.522C804.315 830.23 802.735 834.196 800.413 837.421C798.156 840.645 795.318 843.064 791.9 844.676C788.482 846.224 784.516 846.998 780.001 846.998C775.1 846.998 771.004 846.482 767.715 845.45C764.426 844.354 761.588 842.645 759.202 840.323C756.816 837.937 754.945 834.615 753.591 830.359C752.301 826.102 751.656 820.846 751.656 814.59V746.098C751.656 740.809 751.914 737.036 752.43 734.779C752.946 732.522 753.913 730.845 755.332 729.748C756.751 728.588 759.266 727.556 762.878 726.653V721.912H722.247V726.653C725.407 727.491 727.568 728.297 728.729 729.071C729.889 729.781 730.76 730.651 731.341 731.683C731.985 732.715 732.469 734.134 732.792 735.94C733.114 737.681 733.275 741.067 733.275 746.098V809.753C733.275 818.073 734.082 824.941 735.694 830.359C737.306 835.712 739.918 840.387 743.53 844.386C747.206 848.32 751.817 851.158 757.364 852.899C762.975 854.64 769.682 855.511 777.486 855.511C783.935 855.511 789.546 854.834 794.319 853.48C799.091 852.125 803.154 850.287 806.508 847.965C809.862 845.579 812.667 842.709 814.924 839.355C817.375 835.615 819.213 831.326 820.439 826.489ZM859.661 849.223V853.963H909.483C919.479 853.963 927.992 852.738 935.022 850.287C942.052 847.772 947.502 843.741 951.371 838.195C955.305 832.648 957.272 825.489 957.272 816.718C957.272 809.108 955.015 802.562 950.501 797.08C945.986 791.533 939.343 787.438 930.572 784.794V783.923C936.054 781.601 940.536 779.086 944.019 776.377C947.502 773.669 950.307 770.25 952.435 766.123C954.628 761.995 955.725 757.126 955.725 751.515C955.725 744.743 954.209 739.229 951.178 734.972C948.147 730.651 943.503 727.394 937.247 725.202C931.056 723.009 922.833 721.912 912.578 721.912H859.661V726.653C862.628 727.491 864.724 728.265 865.949 728.974C867.175 729.619 868.142 730.522 868.851 731.683C869.625 732.78 870.174 734.36 870.496 736.423C870.819 738.423 870.98 741.647 870.98 746.098V829.778C870.98 834.551 870.754 838.098 870.303 840.42C869.916 842.741 869.045 844.547 867.691 845.837C866.336 847.062 863.66 848.191 859.661 849.223ZM928.444 774.056C923.284 778.764 915.803 781.118 906 781.118H889.07V731.006C891.07 730.877 894.069 730.748 898.067 730.619C902.066 730.49 905.29 730.426 907.741 730.426C911.804 730.426 915.577 730.813 919.06 731.586C922.543 732.296 925.541 733.521 928.057 735.263C930.636 737.004 932.636 739.358 934.055 742.325C935.538 745.227 936.28 748.903 936.28 753.353C936.28 762.382 933.668 769.283 928.444 774.056ZM904.839 845.45C899.035 845.45 893.778 845.224 889.07 844.773V789.631H904.065C912.449 789.631 919.028 790.63 923.8 792.63C928.573 794.629 932.088 797.66 934.345 801.723C936.667 805.786 937.828 810.946 937.828 817.202C937.828 823.458 936.763 828.682 934.635 832.874C932.571 837.001 929.185 840.129 924.477 842.258C919.834 844.386 913.288 845.45 904.839 845.45ZM1077.18 751.128V721.912H986.724V726.653C989.691 727.491 991.787 728.265 993.012 728.974C994.238 729.619 995.205 730.522 995.914 731.683C996.688 732.78 997.237 734.36 997.559 736.423C997.881 738.423 998.043 741.647 998.043 746.098V829.778C998.043 834.551 997.817 838.098 997.366 840.42C996.979 842.741 996.108 844.547 994.754 845.837C993.399 847.062 990.723 848.191 986.724 849.223V853.963H1076.31L1078.14 820.007H1068.57C1067.28 824.393 1066.24 827.747 1065.47 830.068C1064.76 832.326 1063.86 834.518 1062.76 836.647C1061.67 838.775 1060.41 840.516 1058.99 841.871C1057.57 843.161 1055.86 844.096 1053.86 844.676C1051.93 845.192 1049.38 845.45 1046.22 845.45H1016.13V789.631H1036.84C1039.87 789.631 1042.12 790.05 1043.61 790.888C1045.16 791.727 1046.48 793.146 1047.57 795.145C1048.67 797.08 1049.67 799.982 1050.57 803.852H1059.67V766.703H1050.57C1049.61 770.831 1048.57 773.862 1047.48 775.797C1046.45 777.732 1045.12 779.118 1043.51 779.957C1041.9 780.731 1039.67 781.118 1036.84 781.118H1016.13V730.426H1046.7C1049.22 730.426 1051.38 730.619 1053.18 731.006C1054.99 731.328 1056.54 731.973 1057.83 732.941C1059.18 733.908 1060.41 735.198 1061.5 736.81C1062.6 738.423 1063.67 740.422 1064.7 742.808C1065.73 745.195 1066.73 747.968 1067.7 751.128H1077.18ZM1164.47 829.488V796.596H1175.11C1178.27 796.596 1180.62 796.79 1182.17 797.177C1183.78 797.499 1185.27 798.144 1186.62 799.111C1188.04 800.014 1189.55 801.627 1191.17 803.948C1192.84 806.27 1194.97 809.882 1197.55 814.783L1206.06 830.939C1208.19 835.002 1210.35 839.001 1212.55 842.935C1214.74 846.869 1217.06 850.545 1219.51 853.963H1246.31V849.223C1243.21 848.707 1240.73 847.804 1238.86 846.514C1236.99 845.224 1235.15 843.354 1233.35 840.903C1231.54 838.453 1229.38 834.905 1226.86 830.262L1218.16 814.396C1214.74 808.076 1211.61 803.432 1208.77 800.466C1206 797.435 1202.65 795.113 1198.71 793.5V792.727C1208.45 789.244 1215.74 784.407 1220.58 778.215C1225.48 772.024 1227.93 764.511 1227.93 755.675C1227.93 744.13 1224.19 735.617 1216.71 730.135C1209.22 724.653 1197.94 721.912 1182.85 721.912H1134.96V726.653C1137.93 727.491 1140.02 728.265 1141.25 728.974C1142.47 729.619 1143.44 730.522 1144.15 731.683C1144.92 732.78 1145.47 734.36 1145.79 736.423C1146.12 738.423 1146.28 741.647 1146.28 746.098V829.778C1146.28 834.551 1146.05 838.098 1145.6 840.42C1145.21 842.741 1144.34 844.547 1142.99 845.837C1141.64 847.062 1138.96 848.191 1134.96 849.223V853.963H1175.78V849.223C1172.82 848.385 1170.72 847.643 1169.5 846.998C1168.27 846.289 1167.3 845.418 1166.59 844.386C1165.88 843.29 1165.34 841.709 1164.95 839.646C1164.63 837.517 1164.47 834.131 1164.47 829.488ZM1164.47 788.276V730.813C1168.08 730.555 1172.79 730.426 1178.59 730.426C1185.81 730.426 1191.55 731.49 1195.81 733.618C1200.07 735.746 1203.23 738.842 1205.29 742.905C1207.42 746.968 1208.48 752.063 1208.48 758.19C1208.48 764.059 1207.58 769.025 1205.77 773.088C1204.03 777.087 1201.68 780.215 1198.71 782.472C1195.75 784.729 1192.52 786.277 1189.04 787.116C1185.56 787.889 1181.01 788.276 1175.4 788.276H1164.47Z" fill="#FBFAF2"/>
<path d="M1128.44 829.809C1128.44 834.13 1128.57 837.29 1128.82 839.289C1129.15 841.289 1129.63 842.869 1130.27 844.03C1130.98 845.191 1131.98 846.158 1133.27 846.932C1134.63 847.706 1136.79 848.48 1139.75 849.254V853.994H1098.93V849.254C1102.93 848.222 1105.61 847.093 1106.96 845.868C1108.31 844.578 1109.18 842.772 1109.57 840.45C1110.02 838.129 1110.25 834.581 1110.25 829.809V746.128C1110.25 741.678 1110.09 738.453 1109.77 736.454C1109.44 734.39 1108.89 732.81 1108.12 731.714C1107.41 730.553 1106.44 729.65 1105.22 729.005C1103.99 728.296 1101.9 727.522 1098.93 726.683V721.943H1139.75V726.683C1136.92 727.393 1134.85 728.102 1133.56 728.812C1132.34 729.521 1131.34 730.424 1130.56 731.52C1129.86 732.552 1129.31 734.132 1128.92 736.261C1128.6 738.389 1128.44 741.678 1128.44 746.128V829.809Z" fill="#FBFAF2"/>
<path fill-rule="evenodd" clip-rule="evenodd" d="M501.788 845.094H467.278L533.449 726.587V721.943H446.189V755.125H455.669C456.895 750.74 458.056 747.096 459.152 744.193C460.313 741.227 461.442 738.905 462.538 737.228C463.699 735.551 464.86 734.294 466.021 733.455C467.182 732.552 468.471 731.907 469.89 731.52C471.374 731.069 473.373 730.843 475.888 730.843H511.005L444.738 849.254V853.994H534.126V846.327H501.118L501.788 845.094Z" fill="#FBFAF2"/>
<path fill-rule="evenodd" clip-rule="evenodd" d="M535.366 845.095H500.443L566.613 726.588V721.944H479.353V729.579H509.4L508.932 730.845C508.972 730.844 509.012 730.844 509.052 730.844H544.169L477.902 849.255V853.995H567.29V818.491H557.81C556.262 825.005 554.94 829.81 553.843 832.906C552.747 836.001 551.522 838.42 550.167 840.161C548.813 841.838 547.072 843.096 544.943 843.934C542.879 844.708 539.687 845.095 535.366 845.095ZM658.366 849.255V853.995H702.963V849.255C700.061 848.545 697.771 847.449 696.095 845.966C694.418 844.482 692.967 842.418 691.741 839.774C690.58 837.13 689.226 833.293 687.678 828.262L654.786 720.396H639.501L599.161 827.488C596.645 834.196 594.033 839.355 591.325 842.967C588.68 846.578 585.552 848.674 581.941 849.255V853.995H623.249V849.255C619.186 848.674 616.155 847.481 614.155 845.675C612.22 843.87 611.253 841.032 611.253 837.162C611.253 835.163 611.511 832.938 612.027 830.487C612.543 828.036 613.639 824.425 615.316 819.652L618.605 810.172H663.686L667.266 822.651C668.233 825.811 668.975 828.681 669.491 831.261C670.007 833.776 670.265 836.13 670.265 838.323C670.265 840.645 669.878 842.515 669.104 843.934C668.33 845.288 667.137 846.353 665.525 847.127C663.977 847.9 661.59 848.61 658.366 849.255ZM661.655 801.755H621.217L643.274 739.358L661.655 801.755ZM813 826.521C814.29 821.426 814.935 815.363 814.935 808.334V746.129C814.935 740.841 815.193 737.1 815.708 734.907C816.224 732.715 817.16 731.038 818.514 729.877C819.933 728.716 822.513 727.652 826.253 726.684V721.944H787.654V726.684C791.588 727.716 794.168 728.781 795.393 729.877C796.683 730.973 797.586 732.553 798.102 734.617C798.682 736.681 798.972 740.518 798.972 746.129V806.592C798.972 814.525 798.553 820.845 797.715 825.553C796.876 830.261 795.296 834.228 792.974 837.452C790.717 840.677 787.879 843.096 784.461 844.708C781.043 846.256 777.077 847.03 772.562 847.03C767.661 847.03 763.565 846.514 760.276 845.482C756.987 844.386 754.149 842.676 751.763 840.355C749.377 837.968 747.506 834.647 746.152 830.39C744.862 826.134 744.217 820.878 744.217 814.622V746.129C744.217 740.841 744.475 737.068 744.991 734.811C745.507 732.553 746.474 730.877 747.893 729.78C749.312 728.619 751.827 727.587 755.439 726.684V721.944H714.808V726.684C717.968 727.523 720.129 728.329 721.29 729.103C722.451 729.812 723.321 730.683 723.902 731.715C724.547 732.747 725.03 734.166 725.353 735.972C725.675 737.713 725.836 741.099 725.836 746.129V809.785C725.836 818.104 726.643 824.973 728.255 830.39C729.867 835.743 732.479 840.419 736.091 844.418C739.767 848.352 744.378 851.19 749.925 852.931C755.536 854.672 762.243 855.543 770.047 855.543C776.496 855.543 782.107 854.866 786.88 853.511C791.652 852.157 795.715 850.319 799.069 847.997C802.423 845.611 805.228 842.741 807.486 839.387C809.936 835.647 811.774 831.358 813 826.521ZM852.222 849.255V853.995H902.044C912.04 853.995 920.553 852.77 927.583 850.319C934.613 847.804 940.063 843.773 943.932 838.226C947.866 832.68 949.833 825.521 949.833 816.75C949.833 809.14 947.576 802.594 943.062 797.112C938.547 791.565 931.904 787.47 923.133 784.826V783.955C928.615 781.633 933.097 779.118 936.58 776.409C940.063 773.7 942.868 770.282 944.996 766.155C947.189 762.027 948.286 757.158 948.286 751.547C948.286 744.775 946.77 739.261 943.739 735.004C940.708 730.683 936.064 727.426 929.808 725.233C923.617 723.041 915.394 721.944 905.139 721.944H852.222V726.684C855.189 727.523 857.285 728.297 858.51 729.006C859.736 729.651 860.703 730.554 861.413 731.715C862.187 732.811 862.735 734.391 863.057 736.455C863.38 738.455 863.541 741.679 863.541 746.129V829.81C863.541 834.582 863.315 838.13 862.864 840.451C862.477 842.773 861.606 844.579 860.252 845.869C858.897 847.094 856.221 848.223 852.222 849.255ZM921.005 774.087C915.845 778.795 908.364 781.149 898.561 781.149H881.631V731.038C883.631 730.909 886.63 730.78 890.628 730.651C894.627 730.522 897.852 730.457 900.302 730.457C904.365 730.457 908.138 730.844 911.621 731.618C915.104 732.328 918.103 733.553 920.618 735.294C923.198 737.036 925.197 739.39 926.616 742.356C928.099 745.259 928.841 748.935 928.841 753.385C928.841 762.414 926.229 769.315 921.005 774.087ZM897.4 845.482C891.596 845.482 886.339 845.256 881.631 844.805V789.663H896.626C905.01 789.663 911.589 790.662 916.361 792.662C921.134 794.661 924.649 797.692 926.906 801.755C929.228 805.818 930.389 810.978 930.389 817.234C930.389 823.49 929.324 828.714 927.196 832.906C925.132 837.033 921.746 840.161 917.038 842.289C912.395 844.418 905.849 845.482 897.4 845.482ZM1069.74 751.16V721.944H979.285V726.684C982.252 727.523 984.348 728.297 985.573 729.006C986.799 729.651 987.766 730.554 988.476 731.715C989.249 732.811 989.798 734.391 990.12 736.455C990.443 738.455 990.604 741.679 990.604 746.129V829.81C990.604 834.582 990.378 838.13 989.927 840.451C989.54 842.773 988.669 844.579 987.315 845.869C985.96 847.094 983.284 848.223 979.285 849.255V853.995H1068.87L1070.71 820.039H1061.13C1059.84 824.425 1058.81 827.778 1058.03 830.1C1057.32 832.357 1056.42 834.55 1055.32 836.679C1054.23 838.807 1052.97 840.548 1051.55 841.903C1050.13 843.192 1048.42 844.128 1046.42 844.708C1044.49 845.224 1041.94 845.482 1038.78 845.482H1008.69V789.663H1029.4C1032.43 789.663 1034.69 790.082 1036.17 790.92C1037.72 791.759 1039.04 793.178 1040.13 795.177C1041.23 797.112 1042.23 800.014 1043.13 803.883H1052.23V766.735H1043.13C1042.17 770.863 1041.13 773.894 1040.04 775.829C1039.01 777.764 1037.68 779.15 1036.07 779.989C1034.46 780.762 1032.23 781.149 1029.4 781.149H1008.69V730.457H1039.26C1041.78 730.457 1043.94 730.651 1045.75 731.038C1047.55 731.36 1049.1 732.005 1050.39 732.973C1051.74 733.94 1052.97 735.23 1054.07 736.842C1055.16 738.455 1056.23 740.454 1057.26 742.84C1058.29 745.226 1059.29 748 1060.26 751.16H1069.74ZM1157.03 829.52V796.628H1167.67C1170.83 796.628 1173.18 796.821 1174.73 797.208C1176.34 797.531 1177.83 798.176 1179.18 799.143C1180.6 800.046 1182.12 801.658 1183.73 803.98C1185.4 806.302 1187.53 809.914 1190.11 814.815L1198.63 830.971C1200.75 835.034 1202.91 839.033 1205.11 842.967C1207.3 846.901 1209.62 850.577 1212.07 853.995H1238.87V849.255C1235.77 848.739 1233.29 847.836 1231.42 846.546C1229.55 845.256 1227.71 843.386 1225.91 840.935C1224.1 838.484 1221.94 834.937 1219.42 830.294L1210.72 814.428C1207.3 808.108 1204.17 803.464 1201.33 800.498C1198.56 797.466 1195.21 795.145 1191.27 793.532V792.758C1201.01 789.276 1208.3 784.439 1213.14 778.247C1218.04 772.056 1220.49 764.542 1220.49 755.707C1220.49 744.162 1216.75 735.649 1209.27 730.167C1201.79 724.685 1190.5 721.944 1175.41 721.944H1127.52V726.684C1130.49 727.523 1132.58 728.297 1133.81 729.006C1135.03 729.651 1136 730.554 1136.71 731.715C1137.49 732.811 1138.03 734.391 1138.36 736.455C1138.68 738.455 1138.84 741.679 1138.84 746.129V829.81C1138.84 834.582 1138.61 838.13 1138.16 840.451C1137.78 842.773 1136.9 844.579 1135.55 845.869C1134.2 847.094 1131.52 848.223 1127.52 849.255V853.995H1168.35V849.255C1165.38 848.416 1163.28 847.675 1162.06 847.03C1160.83 846.32 1159.86 845.45 1159.16 844.418C1158.45 843.321 1157.9 841.741 1157.51 839.677C1157.19 837.549 1157.03 834.163 1157.03 829.52ZM1157.03 788.308V730.844C1160.64 730.586 1165.35 730.457 1171.15 730.457C1178.37 730.457 1184.11 731.522 1188.37 733.65C1192.63 735.778 1195.79 738.874 1197.85 742.937C1199.98 747 1201.04 752.095 1201.04 758.222C1201.04 764.091 1200.14 769.057 1198.34 773.12C1196.59 777.119 1194.24 780.247 1191.27 782.504C1188.31 784.761 1185.08 786.309 1181.6 787.147C1178.12 787.921 1173.57 788.308 1167.96 788.308H1157.03Z" fill="#FBFAF2"/>
<path d="M441.608 614.252L466.408 639.796M475.324 627.198L451.337 603.276" stroke="#FBFAF2" stroke-width="6.64892" stroke-linecap="round"/>
<path d="M453.683 601.075L452.892 600.482L452.102 599.889C454.078 601.075 454.078 601.866 453.683 601.075Z" stroke="#FBFAF2" stroke-width="0.213427"/>
<path d="M465.144 642.97L464.354 642.18C463.959 641.389 464.354 642.97 466.33 643.761L465.144 642.97Z" stroke="#FBFAF2" stroke-width="0.213427"/>
<path d="M334.261 728.9L336.353 724.67C335.468 723.683 334.161 723.822 333.041 725.025C331.921 726.227 331.208 728.255 331.235 730.163L334.261 728.9ZM331.985 782.879C332.022 785.485 333.407 787.032 335.078 786.334C336.749 785.637 338.074 782.959 338.037 780.353L331.985 782.879ZM365.411 748.99C366.085 751.131 367.872 751.535 369.402 749.893C370.931 748.251 371.625 745.185 370.951 743.045L365.411 748.99ZM358.355 703.043C357.681 700.902 355.895 700.498 354.365 702.14C352.835 703.782 352.141 706.848 352.815 708.988L358.355 703.043ZM384.366 728.648C385.04 730.789 386.826 731.193 388.356 729.551C389.886 727.909 390.58 724.843 389.906 722.703L384.366 728.648ZM377.31 682.701C376.636 680.56 374.849 680.156 373.319 681.798C371.79 683.44 371.096 686.506 371.77 688.646L377.31 682.701ZM386.787 672.53C386.113 670.389 384.326 669.985 382.797 671.627C381.267 673.269 380.573 676.335 381.247 678.475L386.787 672.53ZM396.613 715.504L393.843 718.477C394.517 720.618 396.304 721.022 397.833 719.38L396.613 715.504ZM416.788 699.038C418.318 697.396 419.012 694.33 418.338 692.19C417.664 690.049 415.877 689.645 414.347 691.287L416.788 699.038ZM412.449 644.989L411.228 641.114C409.699 642.755 409.005 645.822 409.679 647.962L412.449 644.989ZM425.045 684.991L422.275 687.964C422.949 690.104 424.735 690.509 426.265 688.867L425.045 684.991ZM445.22 668.525C446.75 666.883 447.443 663.817 446.769 661.676C446.095 659.536 444.309 659.132 442.779 660.774L445.22 668.525ZM438.922 648.524C440.452 646.882 441.145 643.816 440.471 641.676C439.797 639.535 438.011 639.131 436.481 640.773L438.922 648.524ZM432.624 628.523C434.154 626.881 434.847 623.815 434.173 621.675C433.499 619.534 431.713 619.13 430.183 620.772L432.624 628.523ZM440.881 614.476L439.66 610.601C438.13 612.242 437.437 615.309 438.111 617.449L440.881 614.476ZM450.707 657.451C451.381 659.591 453.167 659.996 454.697 658.354C456.227 656.712 456.921 653.646 456.247 651.505L450.707 657.451ZM466.472 635.346C464.942 636.988 464.249 640.054 464.923 642.194C465.597 644.335 467.383 644.739 468.913 643.097L466.472 635.346ZM477.17 629.051L478.39 632.926C479.92 631.284 480.614 628.218 479.94 626.078L477.17 629.051ZM467.344 586.076C466.67 583.935 464.883 583.531 463.353 585.173C461.824 586.815 461.13 589.881 461.804 592.021L467.344 586.076ZM451.578 608.181C453.108 606.539 453.802 603.473 453.128 601.332C452.454 599.192 450.667 598.788 449.138 600.43L451.578 608.181ZM356.612 760.418C357.82 761.767 359.736 760.967 360.892 758.631C362.047 756.295 362.004 753.308 360.796 751.959L356.612 760.418ZM346.483 742.544L348.574 738.315L346.483 742.544ZM353.814 753.242C355.343 751.6 356.037 748.534 355.363 746.394C354.689 744.253 352.903 743.849 351.373 745.491L353.814 753.242ZM370.951 743.045L364.653 723.044L359.113 728.989L365.411 748.99L370.951 743.045ZM364.653 723.044L358.355 703.043L352.815 708.988L359.113 728.989L364.653 723.044ZM363.104 729.892L382.058 709.55L379.617 701.799L360.663 722.141L363.104 729.892ZM378.068 708.647L384.366 728.648L389.906 722.703L383.608 702.702L378.068 708.647ZM381.247 678.475L393.843 718.477L399.383 712.532L386.787 672.53L381.247 678.475ZM397.833 719.38L416.788 699.038L414.347 691.287L395.393 711.629L397.833 719.38ZM426.265 688.867L445.22 668.525L442.779 660.774L423.824 681.116L426.265 688.867ZM409.679 647.962L415.977 667.963L421.517 662.018L415.219 642.017L409.679 647.962ZM415.977 667.963L422.275 687.964L427.815 682.019L421.517 662.018L415.977 667.963ZM419.967 668.866L438.922 648.524L436.481 640.773L417.526 661.115L419.967 668.866ZM413.669 648.865L432.624 628.523L430.183 620.772L411.228 641.114L413.669 648.865ZM438.111 617.449L450.707 657.451L456.247 651.505L443.651 611.503L438.111 617.449ZM468.913 643.097L478.39 632.926L475.949 625.175L466.472 635.346L468.913 643.097ZM479.94 626.078L467.344 586.076L461.804 592.021L474.4 632.023L479.94 626.078ZM449.138 600.43L439.66 610.601L442.101 618.352L451.578 608.181L449.138 600.43ZM383.608 702.702L377.31 682.701L371.77 688.646L378.068 708.647L383.608 702.702ZM337.662 753.996L337.287 727.638L331.235 730.163L331.61 756.521L337.662 753.996ZM360.796 751.959L348.574 738.315L344.391 746.774L356.612 760.418L360.796 751.959ZM348.574 738.315L336.353 724.67L332.17 733.13L344.391 746.774L348.574 738.315ZM338.037 780.353L337.85 767.174L331.797 769.7L331.985 782.879L338.037 780.353ZM337.85 767.174L337.662 753.996L331.61 756.521L331.797 769.7L337.85 767.174ZM351.373 745.491L333.603 764.562L336.044 772.313L353.814 753.242L351.373 745.491Z" fill="#FBFAF2"/>
<path d="M313.418 841.138C313.418 723.138 323.711 721.011 257.769 789.08" stroke="#FBFAF2" stroke-width="13.0608" stroke-linecap="round" stroke-linejoin="round"/>
<path d="M533.247 601.581L446.958 694.49L310.759 840.988" stroke="#FBFAF2" stroke-width="13.0608" stroke-linecap="round" stroke-linejoin="round"/>
<path d="M306.545 839.068C306.545 842.675 309.469 845.599 313.075 845.599C316.682 845.599 319.606 842.675 319.606 839.068H306.545ZM254.011 784.803C251.061 786.879 250.353 790.952 252.428 793.902C254.504 796.851 258.578 797.56 261.527 795.484L254.011 784.803ZM319.606 839.068C319.606 810.762 319.741 790.688 319.031 777.382C318.678 770.762 318.098 765.36 317.041 761.282C316.073 757.548 314.215 752.923 309.689 750.841C305.071 748.717 300.467 750.502 297.473 752.074C294.2 753.791 290.527 756.513 286.602 759.602C278.485 765.989 268.181 774.832 254.011 784.803L261.527 795.484C276.074 785.248 287.041 775.876 294.679 769.866C298.63 766.756 301.455 764.734 303.542 763.638C305.907 762.397 305.525 763.302 304.231 762.707C303.028 762.153 303.596 761.467 304.398 764.56C305.111 767.307 305.644 771.619 305.989 778.078C306.675 790.929 306.545 810.474 306.545 839.068H319.606Z" fill="#FBFAF2"/>
<path d="M320.52 829.496L316.266 755.045" stroke="#FBFAF2" stroke-width="6.38149"/>
<path d="M536.681 599.537L319.672 845.174C315.17 850.269 307.17 846.7 307.168 839.597L307.166 826.932L307.172 744.409" stroke="#FBFAF2" stroke-width="13.0608" stroke-linecap="round" stroke-linejoin="round"/>
<path d="M535.212 599.015L485.85 582.248C477.688 579.475 476.072 568.146 483.106 563.006L519.633 536.317C522.501 534.221 524.169 530.757 524.069 527.1L522.785 480.162C522.536 471.057 532.474 465.691 539.436 471.171L576.328 500.208C579.038 502.341 582.573 502.958 585.799 501.862L629.173 487.129C637.254 484.383 644.904 492.378 642.277 500.823L628.178 546.15C627.13 549.521 627.721 553.216 629.762 556.047L648.529 582.088L657.547 594.6C662.791 601.876 657.657 612.261 648.944 612.001L604.028 610.66C600.529 610.555 597.214 612.297 595.208 615.295L569.669 653.466C564.75 660.817 553.91 659.128 551.256 650.598L546.46 635.178" stroke="#FBFAF2" stroke-width="15.975" stroke-linecap="round" stroke-linejoin="round"/>
<path d="M1487 66C1487 286 1562 350 1770 350" stroke="#FBFAF2" stroke-width="10" stroke-linecap="round"/>
<path d="M285 126H1709V848" stroke="#FBFAF2" stroke-width="10"/>
<path d="M1760.54 929.536C1762.49 927.583 1762.49 924.417 1760.54 922.464L1728.72 890.645C1726.76 888.692 1723.6 888.692 1721.64 890.645C1719.69 892.597 1719.69 895.763 1721.64 897.716L1749.93 926L1721.64 954.284C1719.69 956.237 1719.69 959.403 1721.64 961.355C1723.6 963.308 1726.76 963.308 1728.72 961.355L1760.54 929.536ZM125 931H1757V921H125V931Z" fill="#FBFAF2"/>
<path d="M207.536 112.465C205.583 110.512 202.417 110.512 200.464 112.465L168.645 144.284C166.692 146.237 166.692 149.403 168.645 151.355C170.597 153.308 173.763 153.308 175.716 151.355L204 123.071L232.284 151.355C234.237 153.308 237.403 153.308 239.355 151.355C241.308 149.403 241.308 146.237 239.355 144.284L207.536 112.465ZM209 1014L209 116L199 116L199 1014L209 1014Z" fill="#FBFAF2"/>
<circle cx="1614" cy="208" r="12" fill="#FBFAF2"/>
<defs>
<linearGradient id="paint0_linear_406_38" x1="960" y1="1080" x2="960" y2="1.0615e-06" gradientUnits="userSpaceOnUse">
<stop stop-color="#062E7A"/>
<stop offset="1" stop-color="#3985DE"/>
</linearGradient>
</defs>
</svg>
